<mxfile host="Electron" agent="Mozilla/5.0 (Windows NT 10.0; Win64; x64) AppleWebKit/537.36 (KHTML, like Gecko) draw.io/26.0.9 Chrome/128.0.6613.186 Electron/32.2.5 Safari/537.36" version="26.0.9">
  <diagram name="第 1 页" id="2xEnvHC6OJ4czp4v9tjE">
    <mxGraphModel dx="2969" dy="1035" grid="1" gridSize="10" guides="1" tooltips="1" connect="1" arrows="1" fold="1" page="1" pageScale="1" pageWidth="827" pageHeight="1169" math="0" shadow="0">
      <root>
        <mxCell id="0" />
        <mxCell id="1" parent="0" />
        <mxCell id="-O3e9xHYWyKH3gtKNk9v-5" value="文档界面用例" style="swimlane;whiteSpace=wrap;html=1;" vertex="1" parent="1">
          <mxGeometry x="120" y="60" width="590" height="470" as="geometry" />
        </mxCell>
        <mxCell id="-O3e9xHYWyKH3gtKNk9v-1" value="访客" style="shape=umlActor;verticalLabelPosition=bottom;verticalAlign=top;html=1;" vertex="1" parent="-O3e9xHYWyKH3gtKNk9v-5">
          <mxGeometry x="100" y="215" width="30" height="60" as="geometry" />
        </mxCell>
        <mxCell id="-O3e9xHYWyKH3gtKNk9v-2" value="新建文档" style="ellipse;whiteSpace=wrap;html=1;" vertex="1" parent="-O3e9xHYWyKH3gtKNk9v-5">
          <mxGeometry x="360" y="165" width="140" height="70" as="geometry" />
        </mxCell>
        <mxCell id="-O3e9xHYWyKH3gtKNk9v-4" value="" style="endArrow=none;html=1;rounded=0;" edge="1" parent="-O3e9xHYWyKH3gtKNk9v-5" source="-O3e9xHYWyKH3gtKNk9v-1" target="-O3e9xHYWyKH3gtKNk9v-2">
          <mxGeometry width="50" height="50" relative="1" as="geometry">
            <mxPoint x="250" y="170" as="sourcePoint" />
            <mxPoint x="440" y="310" as="targetPoint" />
          </mxGeometry>
        </mxCell>
        <mxCell id="-O3e9xHYWyKH3gtKNk9v-9" value="删除文档" style="ellipse;whiteSpace=wrap;html=1;" vertex="1" parent="-O3e9xHYWyKH3gtKNk9v-5">
          <mxGeometry x="360" y="345" width="140" height="70" as="geometry" />
        </mxCell>
        <mxCell id="-O3e9xHYWyKH3gtKNk9v-8" value="" style="endArrow=none;html=1;rounded=0;" edge="1" parent="-O3e9xHYWyKH3gtKNk9v-5" source="-O3e9xHYWyKH3gtKNk9v-1" target="-O3e9xHYWyKH3gtKNk9v-9">
          <mxGeometry width="50" height="50" relative="1" as="geometry">
            <mxPoint x="390" y="260" as="sourcePoint" />
            <mxPoint x="410" y="380" as="targetPoint" />
          </mxGeometry>
        </mxCell>
        <mxCell id="-O3e9xHYWyKH3gtKNk9v-6" value="修改文档" style="ellipse;whiteSpace=wrap;html=1;" vertex="1" parent="-O3e9xHYWyKH3gtKNk9v-5">
          <mxGeometry x="360" y="255" width="140" height="70" as="geometry" />
        </mxCell>
        <mxCell id="-O3e9xHYWyKH3gtKNk9v-7" value="" style="endArrow=none;html=1;rounded=0;" edge="1" parent="-O3e9xHYWyKH3gtKNk9v-5" source="-O3e9xHYWyKH3gtKNk9v-1" target="-O3e9xHYWyKH3gtKNk9v-6">
          <mxGeometry width="50" height="50" relative="1" as="geometry">
            <mxPoint x="390" y="260" as="sourcePoint" />
            <mxPoint x="440" y="210" as="targetPoint" />
          </mxGeometry>
        </mxCell>
        <mxCell id="-O3e9xHYWyKH3gtKNk9v-11" value="查看文档列表" style="ellipse;whiteSpace=wrap;html=1;" vertex="1" parent="-O3e9xHYWyKH3gtKNk9v-5">
          <mxGeometry x="360" y="75" width="140" height="70" as="geometry" />
        </mxCell>
        <mxCell id="-O3e9xHYWyKH3gtKNk9v-10" value="" style="endArrow=none;html=1;rounded=0;" edge="1" parent="-O3e9xHYWyKH3gtKNk9v-5" source="-O3e9xHYWyKH3gtKNk9v-1" target="-O3e9xHYWyKH3gtKNk9v-11">
          <mxGeometry width="50" height="50" relative="1" as="geometry">
            <mxPoint x="240" y="180" as="sourcePoint" />
            <mxPoint x="460" y="80" as="targetPoint" />
          </mxGeometry>
        </mxCell>
        <mxCell id="-O3e9xHYWyKH3gtKNk9v-12" value="sever.js" style="swimlane;whiteSpace=wrap;html=1;" vertex="1" parent="1">
          <mxGeometry x="300" y="1120" width="610" height="450" as="geometry" />
        </mxCell>
        <mxCell id="-O3e9xHYWyKH3gtKNk9v-13" value="main" style="html=1;whiteSpace=wrap;" vertex="1" parent="-O3e9xHYWyKH3gtKNk9v-12">
          <mxGeometry x="240" y="90" width="110" height="50" as="geometry" />
        </mxCell>
        <mxCell id="-O3e9xHYWyKH3gtKNk9v-15" value="/doc&lt;div&gt;路由&lt;/div&gt;&lt;div&gt;router/doc.ts&lt;br&gt;&lt;/div&gt;" style="shape=module;align=left;spacingLeft=20;align=center;verticalAlign=top;whiteSpace=wrap;html=1;" vertex="1" parent="-O3e9xHYWyKH3gtKNk9v-12">
          <mxGeometry x="40" y="320" width="110" height="60" as="geometry" />
        </mxCell>
        <mxCell id="-O3e9xHYWyKH3gtKNk9v-14" value="" style="endArrow=none;html=1;rounded=0;" edge="1" parent="-O3e9xHYWyKH3gtKNk9v-12" source="-O3e9xHYWyKH3gtKNk9v-289" target="-O3e9xHYWyKH3gtKNk9v-15">
          <mxGeometry width="50" height="50" relative="1" as="geometry">
            <mxPoint x="440" y="380" as="sourcePoint" />
            <mxPoint x="490" y="330" as="targetPoint" />
          </mxGeometry>
        </mxCell>
        <mxCell id="-O3e9xHYWyKH3gtKNk9v-16" value="/chapter&lt;div&gt;路由&lt;/div&gt;&lt;div&gt;router/chapter.ts&lt;br&gt;&lt;/div&gt;" style="shape=module;align=left;spacingLeft=20;align=center;verticalAlign=top;whiteSpace=wrap;html=1;" vertex="1" parent="-O3e9xHYWyKH3gtKNk9v-12">
          <mxGeometry x="170" y="320" width="110" height="60" as="geometry" />
        </mxCell>
        <mxCell id="-O3e9xHYWyKH3gtKNk9v-17" value="/page&lt;div&gt;&lt;div&gt;路由&lt;/div&gt;&lt;/div&gt;&lt;div&gt;router/page.ts&lt;br&gt;&lt;/div&gt;" style="shape=module;align=left;spacingLeft=20;align=center;verticalAlign=top;whiteSpace=wrap;html=1;" vertex="1" parent="-O3e9xHYWyKH3gtKNk9v-12">
          <mxGeometry x="300" y="320" width="110" height="50" as="geometry" />
        </mxCell>
        <mxCell id="-O3e9xHYWyKH3gtKNk9v-18" value="/login&lt;div&gt;路由&lt;/div&gt;&lt;div&gt;router/user.ts&lt;br&gt;&lt;/div&gt;" style="shape=module;align=left;spacingLeft=20;align=center;verticalAlign=top;whiteSpace=wrap;html=1;" vertex="1" parent="-O3e9xHYWyKH3gtKNk9v-12">
          <mxGeometry x="440" y="170" width="110" height="60" as="geometry" />
        </mxCell>
        <mxCell id="-O3e9xHYWyKH3gtKNk9v-19" value="" style="endArrow=none;html=1;rounded=0;" edge="1" parent="-O3e9xHYWyKH3gtKNk9v-12" source="-O3e9xHYWyKH3gtKNk9v-16" target="-O3e9xHYWyKH3gtKNk9v-289">
          <mxGeometry width="50" height="50" relative="1" as="geometry">
            <mxPoint x="440" y="300" as="sourcePoint" />
            <mxPoint x="490" y="250" as="targetPoint" />
          </mxGeometry>
        </mxCell>
        <mxCell id="-O3e9xHYWyKH3gtKNk9v-21" value="" style="endArrow=none;html=1;rounded=0;" edge="1" parent="-O3e9xHYWyKH3gtKNk9v-12" source="-O3e9xHYWyKH3gtKNk9v-17" target="-O3e9xHYWyKH3gtKNk9v-289">
          <mxGeometry width="50" height="50" relative="1" as="geometry">
            <mxPoint x="440" y="300" as="sourcePoint" />
            <mxPoint x="490" y="250" as="targetPoint" />
          </mxGeometry>
        </mxCell>
        <mxCell id="-O3e9xHYWyKH3gtKNk9v-22" value="" style="endArrow=none;html=1;rounded=0;" edge="1" parent="-O3e9xHYWyKH3gtKNk9v-12" source="-O3e9xHYWyKH3gtKNk9v-18" target="-O3e9xHYWyKH3gtKNk9v-13">
          <mxGeometry width="50" height="50" relative="1" as="geometry">
            <mxPoint x="440" y="300" as="sourcePoint" />
            <mxPoint x="490" y="250" as="targetPoint" />
          </mxGeometry>
        </mxCell>
        <mxCell id="-O3e9xHYWyKH3gtKNk9v-289" value="/api&lt;div&gt;会话验证&lt;/div&gt;" style="html=1;whiteSpace=wrap;" vertex="1" parent="-O3e9xHYWyKH3gtKNk9v-12">
          <mxGeometry x="180" y="220" width="110" height="50" as="geometry" />
        </mxCell>
        <mxCell id="-O3e9xHYWyKH3gtKNk9v-290" value="" style="endArrow=none;html=1;rounded=0;" edge="1" parent="-O3e9xHYWyKH3gtKNk9v-12" source="-O3e9xHYWyKH3gtKNk9v-289" target="-O3e9xHYWyKH3gtKNk9v-13">
          <mxGeometry width="50" height="50" relative="1" as="geometry">
            <mxPoint x="332" y="330" as="sourcePoint" />
            <mxPoint x="188" y="220" as="targetPoint" />
          </mxGeometry>
        </mxCell>
        <mxCell id="-O3e9xHYWyKH3gtKNk9v-23" value="router/doc.js" style="swimlane;whiteSpace=wrap;html=1;" vertex="1" parent="1">
          <mxGeometry x="-950" y="1900" width="1310" height="610" as="geometry" />
        </mxCell>
        <mxCell id="-O3e9xHYWyKH3gtKNk9v-24" value="/doc" style="swimlane;fontStyle=1;align=center;verticalAlign=top;childLayout=stackLayout;horizontal=1;startSize=26;horizontalStack=0;resizeParent=1;resizeParentMax=0;resizeLast=0;collapsible=1;marginBottom=0;whiteSpace=wrap;html=1;" vertex="1" parent="-O3e9xHYWyKH3gtKNk9v-23">
          <mxGeometry x="575" y="221" width="160" height="182" as="geometry" />
        </mxCell>
        <mxCell id="-O3e9xHYWyKH3gtKNk9v-25" value="+ GET /" style="text;strokeColor=none;fillColor=none;align=left;verticalAlign=top;spacingLeft=4;spacingRight=4;overflow=hidden;rotatable=0;points=[[0,0.5],[1,0.5]];portConstraint=eastwest;whiteSpace=wrap;html=1;" vertex="1" parent="-O3e9xHYWyKH3gtKNk9v-24">
          <mxGeometry y="26" width="160" height="26" as="geometry" />
        </mxCell>
        <mxCell id="-O3e9xHYWyKH3gtKNk9v-29" value="+ PUT /" style="text;strokeColor=none;fillColor=none;align=left;verticalAlign=top;spacingLeft=4;spacingRight=4;overflow=hidden;rotatable=0;points=[[0,0.5],[1,0.5]];portConstraint=eastwest;whiteSpace=wrap;html=1;" vertex="1" parent="-O3e9xHYWyKH3gtKNk9v-24">
          <mxGeometry y="52" width="160" height="26" as="geometry" />
        </mxCell>
        <mxCell id="-O3e9xHYWyKH3gtKNk9v-27" value="+ POST /" style="text;strokeColor=none;fillColor=none;align=left;verticalAlign=top;spacingLeft=4;spacingRight=4;overflow=hidden;rotatable=0;points=[[0,0.5],[1,0.5]];portConstraint=eastwest;whiteSpace=wrap;html=1;" vertex="1" parent="-O3e9xHYWyKH3gtKNk9v-24">
          <mxGeometry y="78" width="160" height="26" as="geometry" />
        </mxCell>
        <mxCell id="-O3e9xHYWyKH3gtKNk9v-31" value="+ DELETE /" style="text;strokeColor=none;fillColor=none;align=left;verticalAlign=top;spacingLeft=4;spacingRight=4;overflow=hidden;rotatable=0;points=[[0,0.5],[1,0.5]];portConstraint=eastwest;whiteSpace=wrap;html=1;" vertex="1" parent="-O3e9xHYWyKH3gtKNk9v-24">
          <mxGeometry y="104" width="160" height="26" as="geometry" />
        </mxCell>
        <mxCell id="-O3e9xHYWyKH3gtKNk9v-33" value="+ GET /file" style="text;strokeColor=none;fillColor=none;align=left;verticalAlign=top;spacingLeft=4;spacingRight=4;overflow=hidden;rotatable=0;points=[[0,0.5],[1,0.5]];portConstraint=eastwest;whiteSpace=wrap;html=1;" vertex="1" parent="-O3e9xHYWyKH3gtKNk9v-24">
          <mxGeometry y="130" width="160" height="26" as="geometry" />
        </mxCell>
        <mxCell id="-O3e9xHYWyKH3gtKNk9v-34" value="+ GET /file/docx" style="text;strokeColor=none;fillColor=none;align=left;verticalAlign=top;spacingLeft=4;spacingRight=4;overflow=hidden;rotatable=0;points=[[0,0.5],[1,0.5]];portConstraint=eastwest;whiteSpace=wrap;html=1;" vertex="1" parent="-O3e9xHYWyKH3gtKNk9v-24">
          <mxGeometry y="156" width="160" height="26" as="geometry" />
        </mxCell>
        <mxCell id="-O3e9xHYWyKH3gtKNk9v-42" value="return" style="html=1;verticalAlign=bottom;endArrow=open;dashed=1;endSize=8;curved=0;rounded=0;exitX=1;exitY=0.5;exitDx=0;exitDy=0;" edge="1" parent="-O3e9xHYWyKH3gtKNk9v-23" source="-O3e9xHYWyKH3gtKNk9v-25" target="-O3e9xHYWyKH3gtKNk9v-38">
          <mxGeometry relative="1" as="geometry">
            <mxPoint x="450" y="240" as="sourcePoint" />
            <mxPoint x="770" y="140" as="targetPoint" />
          </mxGeometry>
        </mxCell>
        <mxCell id="-O3e9xHYWyKH3gtKNk9v-52" value="object" style="swimlane;fontStyle=1;align=center;verticalAlign=top;childLayout=stackLayout;horizontal=1;startSize=26;horizontalStack=0;resizeParent=1;resizeParentMax=0;resizeLast=0;collapsible=1;marginBottom=0;whiteSpace=wrap;html=1;" vertex="1" parent="-O3e9xHYWyKH3gtKNk9v-23">
          <mxGeometry x="960" y="70" width="160" height="52" as="geometry" />
        </mxCell>
        <mxCell id="-O3e9xHYWyKH3gtKNk9v-53" value="- doc_name : string" style="text;strokeColor=none;fillColor=none;align=left;verticalAlign=top;spacingLeft=4;spacingRight=4;overflow=hidden;rotatable=0;points=[[0,0.5],[1,0.5]];portConstraint=eastwest;whiteSpace=wrap;html=1;" vertex="1" parent="-O3e9xHYWyKH3gtKNk9v-52">
          <mxGeometry y="26" width="160" height="26" as="geometry" />
        </mxCell>
        <mxCell id="-O3e9xHYWyKH3gtKNk9v-56" value="1" style="endArrow=open;html=1;endSize=12;startArrow=diamondThin;startSize=14;startFill=0;edgeStyle=orthogonalEdgeStyle;align=left;verticalAlign=bottom;rounded=0;" edge="1" parent="-O3e9xHYWyKH3gtKNk9v-23" source="-O3e9xHYWyKH3gtKNk9v-51" target="-O3e9xHYWyKH3gtKNk9v-52">
          <mxGeometry x="-1" y="3" relative="1" as="geometry">
            <mxPoint x="460" y="300" as="sourcePoint" />
            <mxPoint x="620" y="300" as="targetPoint" />
          </mxGeometry>
        </mxCell>
        <mxCell id="-O3e9xHYWyKH3gtKNk9v-58" value="json" style="swimlane;fontStyle=0;childLayout=stackLayout;horizontal=1;startSize=26;fillColor=none;horizontalStack=0;resizeParent=1;resizeParentMax=0;resizeLast=0;collapsible=1;marginBottom=0;whiteSpace=wrap;html=1;" vertex="1" parent="-O3e9xHYWyKH3gtKNk9v-23">
          <mxGeometry x="360" y="325" width="140" height="52" as="geometry" />
        </mxCell>
        <mxCell id="-O3e9xHYWyKH3gtKNk9v-61" value="- doc_name : string" style="text;strokeColor=none;fillColor=none;align=left;verticalAlign=top;spacingLeft=4;spacingRight=4;overflow=hidden;rotatable=0;points=[[0,0.5],[1,0.5]];portConstraint=eastwest;whiteSpace=wrap;html=1;" vertex="1" parent="-O3e9xHYWyKH3gtKNk9v-58">
          <mxGeometry y="26" width="140" height="26" as="geometry" />
        </mxCell>
        <mxCell id="-O3e9xHYWyKH3gtKNk9v-57" value="Use" style="endArrow=open;endSize=12;dashed=1;html=1;rounded=0;exitX=0;exitY=0.5;exitDx=0;exitDy=0;" edge="1" parent="-O3e9xHYWyKH3gtKNk9v-23" source="-O3e9xHYWyKH3gtKNk9v-27" target="-O3e9xHYWyKH3gtKNk9v-58">
          <mxGeometry width="160" relative="1" as="geometry">
            <mxPoint x="440" y="300" as="sourcePoint" />
            <mxPoint x="600" y="300" as="targetPoint" />
          </mxGeometry>
        </mxCell>
        <mxCell id="-O3e9xHYWyKH3gtKNk9v-63" value="status" style="swimlane;fontStyle=0;childLayout=stackLayout;horizontal=1;startSize=26;fillColor=none;horizontalStack=0;resizeParent=1;resizeParentMax=0;resizeLast=0;collapsible=1;marginBottom=0;whiteSpace=wrap;html=1;" vertex="1" parent="-O3e9xHYWyKH3gtKNk9v-23">
          <mxGeometry x="960" y="247" width="140" height="130" as="geometry" />
        </mxCell>
        <mxCell id="-O3e9xHYWyKH3gtKNk9v-71" value="- ok : bool" style="text;strokeColor=none;fillColor=none;align=left;verticalAlign=top;spacingLeft=4;spacingRight=4;overflow=hidden;rotatable=0;points=[[0,0.5],[1,0.5]];portConstraint=eastwest;whiteSpace=wrap;html=1;" vertex="1" parent="-O3e9xHYWyKH3gtKNk9v-63">
          <mxGeometry y="26" width="140" height="26" as="geometry" />
        </mxCell>
        <mxCell id="-O3e9xHYWyKH3gtKNk9v-67" value="json" style="swimlane;fontStyle=0;childLayout=stackLayout;horizontal=1;startSize=26;fillColor=none;horizontalStack=0;resizeParent=1;resizeParentMax=0;resizeLast=0;collapsible=1;marginBottom=0;whiteSpace=wrap;html=1;" vertex="1" parent="-O3e9xHYWyKH3gtKNk9v-63">
          <mxGeometry y="52" width="140" height="78" as="geometry" />
        </mxCell>
        <mxCell id="-O3e9xHYWyKH3gtKNk9v-144" value="- msg : string" style="text;strokeColor=none;fillColor=none;align=left;verticalAlign=top;spacingLeft=4;spacingRight=4;overflow=hidden;rotatable=0;points=[[0,0.5],[1,0.5]];portConstraint=eastwest;whiteSpace=wrap;html=1;" vertex="1" parent="-O3e9xHYWyKH3gtKNk9v-67">
          <mxGeometry y="26" width="140" height="26" as="geometry" />
        </mxCell>
        <mxCell id="-O3e9xHYWyKH3gtKNk9v-68" value="- err : string" style="text;strokeColor=none;fillColor=none;align=left;verticalAlign=top;spacingLeft=4;spacingRight=4;overflow=hidden;rotatable=0;points=[[0,0.5],[1,0.5]];portConstraint=eastwest;whiteSpace=wrap;html=1;" vertex="1" parent="-O3e9xHYWyKH3gtKNk9v-67">
          <mxGeometry y="52" width="140" height="26" as="geometry" />
        </mxCell>
        <mxCell id="-O3e9xHYWyKH3gtKNk9v-73" value="json" style="swimlane;fontStyle=0;childLayout=stackLayout;horizontal=1;startSize=26;fillColor=none;horizontalStack=0;resizeParent=1;resizeParentMax=0;resizeLast=0;collapsible=1;marginBottom=0;whiteSpace=wrap;html=1;" vertex="1" parent="-O3e9xHYWyKH3gtKNk9v-23">
          <mxGeometry x="170" y="247" width="150" height="78" as="geometry" />
        </mxCell>
        <mxCell id="-O3e9xHYWyKH3gtKNk9v-74" value="- old_doc_name : string" style="text;strokeColor=none;fillColor=none;align=left;verticalAlign=top;spacingLeft=4;spacingRight=4;overflow=hidden;rotatable=0;points=[[0,0.5],[1,0.5]];portConstraint=eastwest;whiteSpace=wrap;html=1;" vertex="1" parent="-O3e9xHYWyKH3gtKNk9v-73">
          <mxGeometry y="26" width="150" height="26" as="geometry" />
        </mxCell>
        <mxCell id="-O3e9xHYWyKH3gtKNk9v-75" value="- new_doc_name : string" style="text;strokeColor=none;fillColor=none;align=left;verticalAlign=top;spacingLeft=4;spacingRight=4;overflow=hidden;rotatable=0;points=[[0,0.5],[1,0.5]];portConstraint=eastwest;whiteSpace=wrap;html=1;" vertex="1" parent="-O3e9xHYWyKH3gtKNk9v-73">
          <mxGeometry y="52" width="150" height="26" as="geometry" />
        </mxCell>
        <mxCell id="-O3e9xHYWyKH3gtKNk9v-77" value="Use" style="endArrow=open;endSize=12;dashed=1;html=1;rounded=0;exitX=0;exitY=0.5;exitDx=0;exitDy=0;" edge="1" parent="-O3e9xHYWyKH3gtKNk9v-23" source="-O3e9xHYWyKH3gtKNk9v-29" target="-O3e9xHYWyKH3gtKNk9v-73">
          <mxGeometry width="160" relative="1" as="geometry">
            <mxPoint x="640" y="400" as="sourcePoint" />
            <mxPoint x="800" y="400" as="targetPoint" />
          </mxGeometry>
        </mxCell>
        <mxCell id="-O3e9xHYWyKH3gtKNk9v-78" value="return" style="html=1;verticalAlign=bottom;endArrow=open;dashed=1;endSize=8;curved=0;rounded=0;exitX=1;exitY=0.5;exitDx=0;exitDy=0;" edge="1" parent="-O3e9xHYWyKH3gtKNk9v-23" source="-O3e9xHYWyKH3gtKNk9v-29" target="-O3e9xHYWyKH3gtKNk9v-63">
          <mxGeometry relative="1" as="geometry">
            <mxPoint x="745" y="296" as="sourcePoint" />
            <mxPoint x="1120" y="296" as="targetPoint" />
            <Array as="points" />
          </mxGeometry>
        </mxCell>
        <mxCell id="-O3e9xHYWyKH3gtKNk9v-79" value="status" style="swimlane;fontStyle=0;childLayout=stackLayout;horizontal=1;startSize=26;fillColor=none;horizontalStack=0;resizeParent=1;resizeParentMax=0;resizeLast=0;collapsible=1;marginBottom=0;whiteSpace=wrap;html=1;" vertex="1" parent="-O3e9xHYWyKH3gtKNk9v-23">
          <mxGeometry x="760" y="90" width="140" height="104" as="geometry" />
        </mxCell>
        <mxCell id="-O3e9xHYWyKH3gtKNk9v-80" value="- ok : bool" style="text;strokeColor=none;fillColor=none;align=left;verticalAlign=top;spacingLeft=4;spacingRight=4;overflow=hidden;rotatable=0;points=[[0,0.5],[1,0.5]];portConstraint=eastwest;whiteSpace=wrap;html=1;" vertex="1" parent="-O3e9xHYWyKH3gtKNk9v-79">
          <mxGeometry y="26" width="140" height="26" as="geometry" />
        </mxCell>
        <mxCell id="-O3e9xHYWyKH3gtKNk9v-38" value="json" style="swimlane;fontStyle=0;childLayout=stackLayout;horizontal=1;startSize=26;fillColor=none;horizontalStack=0;resizeParent=1;resizeParentMax=0;resizeLast=0;collapsible=1;marginBottom=0;whiteSpace=wrap;html=1;" vertex="1" parent="-O3e9xHYWyKH3gtKNk9v-79">
          <mxGeometry y="52" width="140" height="52" as="geometry" />
        </mxCell>
        <mxCell id="-O3e9xHYWyKH3gtKNk9v-51" value="- object" style="text;strokeColor=none;fillColor=none;align=left;verticalAlign=top;spacingLeft=4;spacingRight=4;overflow=hidden;rotatable=0;points=[[0,0.5],[1,0.5]];portConstraint=eastwest;whiteSpace=wrap;html=1;" vertex="1" parent="-O3e9xHYWyKH3gtKNk9v-38">
          <mxGeometry y="26" width="140" height="26" as="geometry" />
        </mxCell>
        <mxCell id="-O3e9xHYWyKH3gtKNk9v-83" value="Use" style="endArrow=open;endSize=12;dashed=1;html=1;rounded=0;exitX=0;exitY=0.5;exitDx=0;exitDy=0;" edge="1" parent="-O3e9xHYWyKH3gtKNk9v-23" source="-O3e9xHYWyKH3gtKNk9v-31" target="-O3e9xHYWyKH3gtKNk9v-58">
          <mxGeometry width="160" relative="1" as="geometry">
            <mxPoint x="529" y="448" as="sourcePoint" />
            <mxPoint x="374" y="403" as="targetPoint" />
          </mxGeometry>
        </mxCell>
        <mxCell id="-O3e9xHYWyKH3gtKNk9v-84" value="Use" style="endArrow=open;endSize=12;dashed=1;html=1;rounded=0;exitX=0;exitY=0.5;exitDx=0;exitDy=0;" edge="1" parent="-O3e9xHYWyKH3gtKNk9v-23" source="-O3e9xHYWyKH3gtKNk9v-33" target="-O3e9xHYWyKH3gtKNk9v-58">
          <mxGeometry width="160" relative="1" as="geometry">
            <mxPoint x="515" y="445" as="sourcePoint" />
            <mxPoint x="360" y="400" as="targetPoint" />
          </mxGeometry>
        </mxCell>
        <mxCell id="-O3e9xHYWyKH3gtKNk9v-85" value="Use" style="endArrow=open;endSize=12;dashed=1;html=1;rounded=0;exitX=0;exitY=0.5;exitDx=0;exitDy=0;" edge="1" parent="-O3e9xHYWyKH3gtKNk9v-23" source="-O3e9xHYWyKH3gtKNk9v-34" target="-O3e9xHYWyKH3gtKNk9v-58">
          <mxGeometry width="160" relative="1" as="geometry">
            <mxPoint x="529" y="429" as="sourcePoint" />
            <mxPoint x="374" y="384" as="targetPoint" />
          </mxGeometry>
        </mxCell>
        <mxCell id="-O3e9xHYWyKH3gtKNk9v-86" value="return" style="html=1;verticalAlign=bottom;endArrow=open;dashed=1;endSize=8;curved=0;rounded=0;exitX=1;exitY=0.5;exitDx=0;exitDy=0;" edge="1" parent="-O3e9xHYWyKH3gtKNk9v-23" source="-O3e9xHYWyKH3gtKNk9v-31" target="-O3e9xHYWyKH3gtKNk9v-63">
          <mxGeometry relative="1" as="geometry">
            <mxPoint x="745" y="322" as="sourcePoint" />
            <mxPoint x="970" y="322" as="targetPoint" />
            <Array as="points" />
          </mxGeometry>
        </mxCell>
        <mxCell id="-O3e9xHYWyKH3gtKNk9v-87" value="return" style="html=1;verticalAlign=bottom;endArrow=open;dashed=1;endSize=8;curved=0;rounded=0;exitX=1;exitY=0.5;exitDx=0;exitDy=0;" edge="1" parent="-O3e9xHYWyKH3gtKNk9v-23" source="-O3e9xHYWyKH3gtKNk9v-33" target="-O3e9xHYWyKH3gtKNk9v-89">
          <mxGeometry relative="1" as="geometry">
            <mxPoint x="735" y="420" as="sourcePoint" />
            <mxPoint x="960" y="420" as="targetPoint" />
          </mxGeometry>
        </mxCell>
        <mxCell id="-O3e9xHYWyKH3gtKNk9v-88" value="return" style="html=1;verticalAlign=bottom;endArrow=open;dashed=1;endSize=8;curved=0;rounded=0;exitX=1;exitY=0.5;exitDx=0;exitDy=0;" edge="1" parent="-O3e9xHYWyKH3gtKNk9v-23" source="-O3e9xHYWyKH3gtKNk9v-34" target="-O3e9xHYWyKH3gtKNk9v-89">
          <mxGeometry relative="1" as="geometry">
            <mxPoint x="670" y="490" as="sourcePoint" />
            <mxPoint x="895" y="550" as="targetPoint" />
          </mxGeometry>
        </mxCell>
        <mxCell id="-O3e9xHYWyKH3gtKNk9v-89" value="status" style="swimlane;fontStyle=0;childLayout=stackLayout;horizontal=1;startSize=26;fillColor=none;horizontalStack=0;resizeParent=1;resizeParentMax=0;resizeLast=0;collapsible=1;marginBottom=0;whiteSpace=wrap;html=1;" vertex="1" parent="-O3e9xHYWyKH3gtKNk9v-23">
          <mxGeometry x="1000" y="403" width="140" height="78" as="geometry" />
        </mxCell>
        <mxCell id="-O3e9xHYWyKH3gtKNk9v-90" value="- ok : bool" style="text;strokeColor=none;fillColor=none;align=left;verticalAlign=top;spacingLeft=4;spacingRight=4;overflow=hidden;rotatable=0;points=[[0,0.5],[1,0.5]];portConstraint=eastwest;whiteSpace=wrap;html=1;" vertex="1" parent="-O3e9xHYWyKH3gtKNk9v-89">
          <mxGeometry y="26" width="140" height="26" as="geometry" />
        </mxCell>
        <mxCell id="-O3e9xHYWyKH3gtKNk9v-93" value="+ Even Download" style="text;strokeColor=none;fillColor=none;align=left;verticalAlign=top;spacingLeft=4;spacingRight=4;overflow=hidden;rotatable=0;points=[[0,0.5],[1,0.5]];portConstraint=eastwest;whiteSpace=wrap;html=1;" vertex="1" parent="-O3e9xHYWyKH3gtKNk9v-89">
          <mxGeometry y="52" width="140" height="26" as="geometry" />
        </mxCell>
        <mxCell id="-O3e9xHYWyKH3gtKNk9v-294" value="return" style="html=1;verticalAlign=bottom;endArrow=open;dashed=1;endSize=8;curved=0;rounded=0;exitX=1;exitY=0.5;exitDx=0;exitDy=0;" edge="1" parent="-O3e9xHYWyKH3gtKNk9v-23" source="-O3e9xHYWyKH3gtKNk9v-27" target="-O3e9xHYWyKH3gtKNk9v-63">
          <mxGeometry relative="1" as="geometry">
            <mxPoint x="750" y="315" as="sourcePoint" />
            <mxPoint x="1015" y="377" as="targetPoint" />
          </mxGeometry>
        </mxCell>
        <mxCell id="-O3e9xHYWyKH3gtKNk9v-94" value="router/chapter.js" style="swimlane;whiteSpace=wrap;html=1;" vertex="1" parent="1">
          <mxGeometry x="-120" y="2590" width="1310" height="610" as="geometry" />
        </mxCell>
        <mxCell id="-O3e9xHYWyKH3gtKNk9v-95" value="/chapter" style="swimlane;fontStyle=1;align=center;verticalAlign=top;childLayout=stackLayout;horizontal=1;startSize=26;horizontalStack=0;resizeParent=1;resizeParentMax=0;resizeLast=0;collapsible=1;marginBottom=0;whiteSpace=wrap;html=1;" vertex="1" parent="-O3e9xHYWyKH3gtKNk9v-94">
          <mxGeometry x="575" y="221" width="160" height="156" as="geometry" />
        </mxCell>
        <mxCell id="-O3e9xHYWyKH3gtKNk9v-96" value="+ GET /" style="text;strokeColor=none;fillColor=none;align=left;verticalAlign=top;spacingLeft=4;spacingRight=4;overflow=hidden;rotatable=0;points=[[0,0.5],[1,0.5]];portConstraint=eastwest;whiteSpace=wrap;html=1;" vertex="1" parent="-O3e9xHYWyKH3gtKNk9v-95">
          <mxGeometry y="26" width="160" height="26" as="geometry" />
        </mxCell>
        <mxCell id="-O3e9xHYWyKH3gtKNk9v-98" value="+ POST /" style="text;strokeColor=none;fillColor=none;align=left;verticalAlign=top;spacingLeft=4;spacingRight=4;overflow=hidden;rotatable=0;points=[[0,0.5],[1,0.5]];portConstraint=eastwest;whiteSpace=wrap;html=1;" vertex="1" parent="-O3e9xHYWyKH3gtKNk9v-95">
          <mxGeometry y="52" width="160" height="26" as="geometry" />
        </mxCell>
        <mxCell id="-O3e9xHYWyKH3gtKNk9v-97" value="+ PUT /" style="text;strokeColor=none;fillColor=none;align=left;verticalAlign=top;spacingLeft=4;spacingRight=4;overflow=hidden;rotatable=0;points=[[0,0.5],[1,0.5]];portConstraint=eastwest;whiteSpace=wrap;html=1;" vertex="1" parent="-O3e9xHYWyKH3gtKNk9v-95">
          <mxGeometry y="78" width="160" height="26" as="geometry" />
        </mxCell>
        <mxCell id="-O3e9xHYWyKH3gtKNk9v-99" value="+ DELETE /" style="text;strokeColor=none;fillColor=none;align=left;verticalAlign=top;spacingLeft=4;spacingRight=4;overflow=hidden;rotatable=0;points=[[0,0.5],[1,0.5]];portConstraint=eastwest;whiteSpace=wrap;html=1;" vertex="1" parent="-O3e9xHYWyKH3gtKNk9v-95">
          <mxGeometry y="104" width="160" height="26" as="geometry" />
        </mxCell>
        <mxCell id="-O3e9xHYWyKH3gtKNk9v-145" value="+ PUT /last-page" style="text;strokeColor=none;fillColor=none;align=left;verticalAlign=top;spacingLeft=4;spacingRight=4;overflow=hidden;rotatable=0;points=[[0,0.5],[1,0.5]];portConstraint=eastwest;whiteSpace=wrap;html=1;" vertex="1" parent="-O3e9xHYWyKH3gtKNk9v-95">
          <mxGeometry y="130" width="160" height="26" as="geometry" />
        </mxCell>
        <mxCell id="-O3e9xHYWyKH3gtKNk9v-102" value="return" style="html=1;verticalAlign=bottom;endArrow=open;dashed=1;endSize=8;curved=0;rounded=0;exitX=1;exitY=0.5;exitDx=0;exitDy=0;" edge="1" parent="-O3e9xHYWyKH3gtKNk9v-94" source="-O3e9xHYWyKH3gtKNk9v-96" target="-O3e9xHYWyKH3gtKNk9v-121">
          <mxGeometry relative="1" as="geometry">
            <mxPoint x="450" y="240" as="sourcePoint" />
            <mxPoint x="770" y="140" as="targetPoint" />
          </mxGeometry>
        </mxCell>
        <mxCell id="-O3e9xHYWyKH3gtKNk9v-103" value="object" style="swimlane;fontStyle=1;align=center;verticalAlign=top;childLayout=stackLayout;horizontal=1;startSize=26;horizontalStack=0;resizeParent=1;resizeParentMax=0;resizeLast=0;collapsible=1;marginBottom=0;whiteSpace=wrap;html=1;" vertex="1" parent="-O3e9xHYWyKH3gtKNk9v-94">
          <mxGeometry x="960" y="70" width="160" height="130" as="geometry" />
        </mxCell>
        <mxCell id="-O3e9xHYWyKH3gtKNk9v-104" value="- chapter_id" style="text;strokeColor=none;fillColor=none;align=left;verticalAlign=top;spacingLeft=4;spacingRight=4;overflow=hidden;rotatable=0;points=[[0,0.5],[1,0.5]];portConstraint=eastwest;whiteSpace=wrap;html=1;" vertex="1" parent="-O3e9xHYWyKH3gtKNk9v-103">
          <mxGeometry y="26" width="160" height="26" as="geometry" />
        </mxCell>
        <mxCell id="-O3e9xHYWyKH3gtKNk9v-153" value="- title" style="text;strokeColor=none;fillColor=none;align=left;verticalAlign=top;spacingLeft=4;spacingRight=4;overflow=hidden;rotatable=0;points=[[0,0.5],[1,0.5]];portConstraint=eastwest;whiteSpace=wrap;html=1;" vertex="1" parent="-O3e9xHYWyKH3gtKNk9v-103">
          <mxGeometry y="52" width="160" height="26" as="geometry" />
        </mxCell>
        <mxCell id="-O3e9xHYWyKH3gtKNk9v-154" value="- sort_order" style="text;strokeColor=none;fillColor=none;align=left;verticalAlign=top;spacingLeft=4;spacingRight=4;overflow=hidden;rotatable=0;points=[[0,0.5],[1,0.5]];portConstraint=eastwest;whiteSpace=wrap;html=1;" vertex="1" parent="-O3e9xHYWyKH3gtKNk9v-103">
          <mxGeometry y="78" width="160" height="26" as="geometry" />
        </mxCell>
        <mxCell id="-O3e9xHYWyKH3gtKNk9v-155" value="- last_page" style="text;strokeColor=none;fillColor=none;align=left;verticalAlign=top;spacingLeft=4;spacingRight=4;overflow=hidden;rotatable=0;points=[[0,0.5],[1,0.5]];portConstraint=eastwest;whiteSpace=wrap;html=1;" vertex="1" parent="-O3e9xHYWyKH3gtKNk9v-103">
          <mxGeometry y="104" width="160" height="26" as="geometry" />
        </mxCell>
        <mxCell id="-O3e9xHYWyKH3gtKNk9v-105" value="1" style="endArrow=open;html=1;endSize=12;startArrow=diamondThin;startSize=14;startFill=0;edgeStyle=orthogonalEdgeStyle;align=left;verticalAlign=bottom;rounded=0;" edge="1" parent="-O3e9xHYWyKH3gtKNk9v-94" source="-O3e9xHYWyKH3gtKNk9v-122" target="-O3e9xHYWyKH3gtKNk9v-103">
          <mxGeometry x="-1" y="3" relative="1" as="geometry">
            <mxPoint x="460" y="300" as="sourcePoint" />
            <mxPoint x="620" y="300" as="targetPoint" />
          </mxGeometry>
        </mxCell>
        <mxCell id="-O3e9xHYWyKH3gtKNk9v-106" value="json" style="swimlane;fontStyle=0;childLayout=stackLayout;horizontal=1;startSize=26;fillColor=none;horizontalStack=0;resizeParent=1;resizeParentMax=0;resizeLast=0;collapsible=1;marginBottom=0;whiteSpace=wrap;html=1;" vertex="1" parent="-O3e9xHYWyKH3gtKNk9v-94">
          <mxGeometry x="290" y="340" width="160" height="78" as="geometry" />
        </mxCell>
        <mxCell id="-O3e9xHYWyKH3gtKNk9v-107" value="- doc_name : string" style="text;strokeColor=none;fillColor=none;align=left;verticalAlign=top;spacingLeft=4;spacingRight=4;overflow=hidden;rotatable=0;points=[[0,0.5],[1,0.5]];portConstraint=eastwest;whiteSpace=wrap;html=1;" vertex="1" parent="-O3e9xHYWyKH3gtKNk9v-106">
          <mxGeometry y="26" width="160" height="26" as="geometry" />
        </mxCell>
        <mxCell id="-O3e9xHYWyKH3gtKNk9v-142" value="- chapter_id : string/number" style="text;strokeColor=none;fillColor=none;align=left;verticalAlign=top;spacingLeft=4;spacingRight=4;overflow=hidden;rotatable=0;points=[[0,0.5],[1,0.5]];portConstraint=eastwest;whiteSpace=wrap;html=1;" vertex="1" parent="-O3e9xHYWyKH3gtKNk9v-106">
          <mxGeometry y="52" width="160" height="26" as="geometry" />
        </mxCell>
        <mxCell id="-O3e9xHYWyKH3gtKNk9v-108" value="Use" style="endArrow=open;endSize=12;dashed=1;html=1;rounded=0;exitX=0;exitY=0.5;exitDx=0;exitDy=0;" edge="1" parent="-O3e9xHYWyKH3gtKNk9v-94" source="-O3e9xHYWyKH3gtKNk9v-98" target="-O3e9xHYWyKH3gtKNk9v-137">
          <mxGeometry width="160" relative="1" as="geometry">
            <mxPoint x="440" y="300" as="sourcePoint" />
            <mxPoint x="600" y="300" as="targetPoint" />
          </mxGeometry>
        </mxCell>
        <mxCell id="-O3e9xHYWyKH3gtKNk9v-109" value="status" style="swimlane;fontStyle=0;childLayout=stackLayout;horizontal=1;startSize=26;fillColor=none;horizontalStack=0;resizeParent=1;resizeParentMax=0;resizeLast=0;collapsible=1;marginBottom=0;whiteSpace=wrap;html=1;" vertex="1" parent="-O3e9xHYWyKH3gtKNk9v-94">
          <mxGeometry x="950" y="299" width="140" height="130" as="geometry" />
        </mxCell>
        <mxCell id="-O3e9xHYWyKH3gtKNk9v-110" value="- ok : bool" style="text;strokeColor=none;fillColor=none;align=left;verticalAlign=top;spacingLeft=4;spacingRight=4;overflow=hidden;rotatable=0;points=[[0,0.5],[1,0.5]];portConstraint=eastwest;whiteSpace=wrap;html=1;" vertex="1" parent="-O3e9xHYWyKH3gtKNk9v-109">
          <mxGeometry y="26" width="140" height="26" as="geometry" />
        </mxCell>
        <mxCell id="-O3e9xHYWyKH3gtKNk9v-111" value="json" style="swimlane;fontStyle=0;childLayout=stackLayout;horizontal=1;startSize=26;fillColor=none;horizontalStack=0;resizeParent=1;resizeParentMax=0;resizeLast=0;collapsible=1;marginBottom=0;whiteSpace=wrap;html=1;" vertex="1" parent="-O3e9xHYWyKH3gtKNk9v-109">
          <mxGeometry y="52" width="140" height="78" as="geometry" />
        </mxCell>
        <mxCell id="-O3e9xHYWyKH3gtKNk9v-143" value="- msg : string" style="text;strokeColor=none;fillColor=none;align=left;verticalAlign=top;spacingLeft=4;spacingRight=4;overflow=hidden;rotatable=0;points=[[0,0.5],[1,0.5]];portConstraint=eastwest;whiteSpace=wrap;html=1;" vertex="1" parent="-O3e9xHYWyKH3gtKNk9v-111">
          <mxGeometry y="26" width="140" height="26" as="geometry" />
        </mxCell>
        <mxCell id="-O3e9xHYWyKH3gtKNk9v-112" value="- err : string" style="text;strokeColor=none;fillColor=none;align=left;verticalAlign=top;spacingLeft=4;spacingRight=4;overflow=hidden;rotatable=0;points=[[0,0.5],[1,0.5]];portConstraint=eastwest;whiteSpace=wrap;html=1;" vertex="1" parent="-O3e9xHYWyKH3gtKNk9v-111">
          <mxGeometry y="52" width="140" height="26" as="geometry" />
        </mxCell>
        <mxCell id="-O3e9xHYWyKH3gtKNk9v-113" value="return" style="html=1;verticalAlign=bottom;endArrow=open;dashed=1;endSize=8;curved=0;rounded=0;exitX=1;exitY=0.5;exitDx=0;exitDy=0;" edge="1" parent="-O3e9xHYWyKH3gtKNk9v-94" source="-O3e9xHYWyKH3gtKNk9v-98" target="-O3e9xHYWyKH3gtKNk9v-109">
          <mxGeometry relative="1" as="geometry">
            <mxPoint x="900" y="390" as="sourcePoint" />
            <mxPoint x="480" y="300" as="targetPoint" />
          </mxGeometry>
        </mxCell>
        <mxCell id="-O3e9xHYWyKH3gtKNk9v-114" value="json" style="swimlane;fontStyle=0;childLayout=stackLayout;horizontal=1;startSize=26;fillColor=none;horizontalStack=0;resizeParent=1;resizeParentMax=0;resizeLast=0;collapsible=1;marginBottom=0;whiteSpace=wrap;html=1;" vertex="1" parent="-O3e9xHYWyKH3gtKNk9v-94">
          <mxGeometry x="110" y="240" width="160" height="130" as="geometry" />
        </mxCell>
        <mxCell id="-O3e9xHYWyKH3gtKNk9v-115" value="- doc_name : string" style="text;strokeColor=none;fillColor=none;align=left;verticalAlign=top;spacingLeft=4;spacingRight=4;overflow=hidden;rotatable=0;points=[[0,0.5],[1,0.5]];portConstraint=eastwest;whiteSpace=wrap;html=1;" vertex="1" parent="-O3e9xHYWyKH3gtKNk9v-114">
          <mxGeometry y="26" width="160" height="26" as="geometry" />
        </mxCell>
        <mxCell id="-O3e9xHYWyKH3gtKNk9v-116" value="- chapter_id : string/number" style="text;strokeColor=none;fillColor=none;align=left;verticalAlign=top;spacingLeft=4;spacingRight=4;overflow=hidden;rotatable=0;points=[[0,0.5],[1,0.5]];portConstraint=eastwest;whiteSpace=wrap;html=1;" vertex="1" parent="-O3e9xHYWyKH3gtKNk9v-114">
          <mxGeometry y="52" width="160" height="26" as="geometry" />
        </mxCell>
        <mxCell id="-O3e9xHYWyKH3gtKNk9v-140" value="- title : string" style="text;strokeColor=none;fillColor=none;align=left;verticalAlign=top;spacingLeft=4;spacingRight=4;overflow=hidden;rotatable=0;points=[[0,0.5],[1,0.5]];portConstraint=eastwest;whiteSpace=wrap;html=1;" vertex="1" parent="-O3e9xHYWyKH3gtKNk9v-114">
          <mxGeometry y="78" width="160" height="26" as="geometry" />
        </mxCell>
        <mxCell id="-O3e9xHYWyKH3gtKNk9v-141" value="- sort_order : string/number" style="text;strokeColor=none;fillColor=none;align=left;verticalAlign=top;spacingLeft=4;spacingRight=4;overflow=hidden;rotatable=0;points=[[0,0.5],[1,0.5]];portConstraint=eastwest;whiteSpace=wrap;html=1;" vertex="1" parent="-O3e9xHYWyKH3gtKNk9v-114">
          <mxGeometry y="104" width="160" height="26" as="geometry" />
        </mxCell>
        <mxCell id="-O3e9xHYWyKH3gtKNk9v-117" value="Use" style="endArrow=open;endSize=12;dashed=1;html=1;rounded=0;exitX=0;exitY=0.5;exitDx=0;exitDy=0;" edge="1" parent="-O3e9xHYWyKH3gtKNk9v-94" source="-O3e9xHYWyKH3gtKNk9v-97" target="-O3e9xHYWyKH3gtKNk9v-114">
          <mxGeometry width="160" relative="1" as="geometry">
            <mxPoint x="640" y="400" as="sourcePoint" />
            <mxPoint x="800" y="400" as="targetPoint" />
          </mxGeometry>
        </mxCell>
        <mxCell id="-O3e9xHYWyKH3gtKNk9v-118" value="return" style="html=1;verticalAlign=bottom;endArrow=open;dashed=1;endSize=8;curved=0;rounded=0;exitX=1;exitY=0.5;exitDx=0;exitDy=0;" edge="1" parent="-O3e9xHYWyKH3gtKNk9v-94" source="-O3e9xHYWyKH3gtKNk9v-97" target="-O3e9xHYWyKH3gtKNk9v-109">
          <mxGeometry relative="1" as="geometry">
            <mxPoint x="745" y="296" as="sourcePoint" />
            <mxPoint x="1120" y="296" as="targetPoint" />
          </mxGeometry>
        </mxCell>
        <mxCell id="-O3e9xHYWyKH3gtKNk9v-119" value="status" style="swimlane;fontStyle=0;childLayout=stackLayout;horizontal=1;startSize=26;fillColor=none;horizontalStack=0;resizeParent=1;resizeParentMax=0;resizeLast=0;collapsible=1;marginBottom=0;whiteSpace=wrap;html=1;" vertex="1" parent="-O3e9xHYWyKH3gtKNk9v-94">
          <mxGeometry x="760" y="90" width="140" height="104" as="geometry" />
        </mxCell>
        <mxCell id="-O3e9xHYWyKH3gtKNk9v-120" value="- ok : bool" style="text;strokeColor=none;fillColor=none;align=left;verticalAlign=top;spacingLeft=4;spacingRight=4;overflow=hidden;rotatable=0;points=[[0,0.5],[1,0.5]];portConstraint=eastwest;whiteSpace=wrap;html=1;" vertex="1" parent="-O3e9xHYWyKH3gtKNk9v-119">
          <mxGeometry y="26" width="140" height="26" as="geometry" />
        </mxCell>
        <mxCell id="-O3e9xHYWyKH3gtKNk9v-121" value="json" style="swimlane;fontStyle=0;childLayout=stackLayout;horizontal=1;startSize=26;fillColor=none;horizontalStack=0;resizeParent=1;resizeParentMax=0;resizeLast=0;collapsible=1;marginBottom=0;whiteSpace=wrap;html=1;" vertex="1" parent="-O3e9xHYWyKH3gtKNk9v-119">
          <mxGeometry y="52" width="140" height="52" as="geometry" />
        </mxCell>
        <mxCell id="-O3e9xHYWyKH3gtKNk9v-122" value="- object" style="text;strokeColor=none;fillColor=none;align=left;verticalAlign=top;spacingLeft=4;spacingRight=4;overflow=hidden;rotatable=0;points=[[0,0.5],[1,0.5]];portConstraint=eastwest;whiteSpace=wrap;html=1;" vertex="1" parent="-O3e9xHYWyKH3gtKNk9v-121">
          <mxGeometry y="26" width="140" height="26" as="geometry" />
        </mxCell>
        <mxCell id="-O3e9xHYWyKH3gtKNk9v-123" value="Use" style="endArrow=open;endSize=12;dashed=1;html=1;rounded=0;exitX=0;exitY=0.5;exitDx=0;exitDy=0;" edge="1" parent="-O3e9xHYWyKH3gtKNk9v-94" source="-O3e9xHYWyKH3gtKNk9v-99" target="-O3e9xHYWyKH3gtKNk9v-106">
          <mxGeometry width="160" relative="1" as="geometry">
            <mxPoint x="529" y="448" as="sourcePoint" />
            <mxPoint x="374" y="403" as="targetPoint" />
          </mxGeometry>
        </mxCell>
        <mxCell id="-O3e9xHYWyKH3gtKNk9v-126" value="return" style="html=1;verticalAlign=bottom;endArrow=open;dashed=1;endSize=8;curved=0;rounded=0;exitX=1;exitY=0.5;exitDx=0;exitDy=0;" edge="1" parent="-O3e9xHYWyKH3gtKNk9v-94" source="-O3e9xHYWyKH3gtKNk9v-99" target="-O3e9xHYWyKH3gtKNk9v-109">
          <mxGeometry relative="1" as="geometry">
            <mxPoint x="745" y="322" as="sourcePoint" />
            <mxPoint x="970" y="322" as="targetPoint" />
          </mxGeometry>
        </mxCell>
        <mxCell id="-O3e9xHYWyKH3gtKNk9v-132" value="query" style="swimlane;fontStyle=0;childLayout=stackLayout;horizontal=1;startSize=26;fillColor=none;horizontalStack=0;resizeParent=1;resizeParentMax=0;resizeLast=0;collapsible=1;marginBottom=0;whiteSpace=wrap;html=1;" vertex="1" parent="-O3e9xHYWyKH3gtKNk9v-94">
          <mxGeometry x="360" y="100" width="140" height="52" as="geometry" />
        </mxCell>
        <mxCell id="-O3e9xHYWyKH3gtKNk9v-135" value="+ doc_name : string" style="text;strokeColor=none;fillColor=none;align=left;verticalAlign=top;spacingLeft=4;spacingRight=4;overflow=hidden;rotatable=0;points=[[0,0.5],[1,0.5]];portConstraint=eastwest;whiteSpace=wrap;html=1;" vertex="1" parent="-O3e9xHYWyKH3gtKNk9v-132">
          <mxGeometry y="26" width="140" height="26" as="geometry" />
        </mxCell>
        <mxCell id="-O3e9xHYWyKH3gtKNk9v-136" value="Use" style="endArrow=open;endSize=12;dashed=1;html=1;rounded=0;exitX=0;exitY=0.5;exitDx=0;exitDy=0;" edge="1" parent="-O3e9xHYWyKH3gtKNk9v-94" source="-O3e9xHYWyKH3gtKNk9v-96" target="-O3e9xHYWyKH3gtKNk9v-132">
          <mxGeometry width="160" relative="1" as="geometry">
            <mxPoint x="557.5" y="240" as="sourcePoint" />
            <mxPoint x="302.5" y="240" as="targetPoint" />
          </mxGeometry>
        </mxCell>
        <mxCell id="-O3e9xHYWyKH3gtKNk9v-137" value="json" style="swimlane;fontStyle=0;childLayout=stackLayout;horizontal=1;startSize=26;fillColor=none;horizontalStack=0;resizeParent=1;resizeParentMax=0;resizeLast=0;collapsible=1;marginBottom=0;whiteSpace=wrap;html=1;" vertex="1" parent="-O3e9xHYWyKH3gtKNk9v-94">
          <mxGeometry x="160" y="116" width="140" height="78" as="geometry" />
        </mxCell>
        <mxCell id="-O3e9xHYWyKH3gtKNk9v-138" value="- doc_name : string" style="text;strokeColor=none;fillColor=none;align=left;verticalAlign=top;spacingLeft=4;spacingRight=4;overflow=hidden;rotatable=0;points=[[0,0.5],[1,0.5]];portConstraint=eastwest;whiteSpace=wrap;html=1;" vertex="1" parent="-O3e9xHYWyKH3gtKNk9v-137">
          <mxGeometry y="26" width="140" height="26" as="geometry" />
        </mxCell>
        <mxCell id="-O3e9xHYWyKH3gtKNk9v-139" value="- title : string" style="text;strokeColor=none;fillColor=none;align=left;verticalAlign=top;spacingLeft=4;spacingRight=4;overflow=hidden;rotatable=0;points=[[0,0.5],[1,0.5]];portConstraint=eastwest;whiteSpace=wrap;html=1;" vertex="1" parent="-O3e9xHYWyKH3gtKNk9v-137">
          <mxGeometry y="52" width="140" height="26" as="geometry" />
        </mxCell>
        <mxCell id="-O3e9xHYWyKH3gtKNk9v-147" value="json" style="swimlane;fontStyle=0;childLayout=stackLayout;horizontal=1;startSize=26;fillColor=none;horizontalStack=0;resizeParent=1;resizeParentMax=0;resizeLast=0;collapsible=1;marginBottom=0;whiteSpace=wrap;html=1;" vertex="1" parent="-O3e9xHYWyKH3gtKNk9v-94">
          <mxGeometry x="330" y="460" width="160" height="104" as="geometry" />
        </mxCell>
        <mxCell id="-O3e9xHYWyKH3gtKNk9v-148" value="- doc_name : string" style="text;strokeColor=none;fillColor=none;align=left;verticalAlign=top;spacingLeft=4;spacingRight=4;overflow=hidden;rotatable=0;points=[[0,0.5],[1,0.5]];portConstraint=eastwest;whiteSpace=wrap;html=1;" vertex="1" parent="-O3e9xHYWyKH3gtKNk9v-147">
          <mxGeometry y="26" width="160" height="26" as="geometry" />
        </mxCell>
        <mxCell id="-O3e9xHYWyKH3gtKNk9v-149" value="- chapter_id : string/number" style="text;strokeColor=none;fillColor=none;align=left;verticalAlign=top;spacingLeft=4;spacingRight=4;overflow=hidden;rotatable=0;points=[[0,0.5],[1,0.5]];portConstraint=eastwest;whiteSpace=wrap;html=1;" vertex="1" parent="-O3e9xHYWyKH3gtKNk9v-147">
          <mxGeometry y="52" width="160" height="26" as="geometry" />
        </mxCell>
        <mxCell id="-O3e9xHYWyKH3gtKNk9v-150" value="- last_page : string|number" style="text;strokeColor=none;fillColor=none;align=left;verticalAlign=top;spacingLeft=4;spacingRight=4;overflow=hidden;rotatable=0;points=[[0,0.5],[1,0.5]];portConstraint=eastwest;whiteSpace=wrap;html=1;" vertex="1" parent="-O3e9xHYWyKH3gtKNk9v-147">
          <mxGeometry y="78" width="160" height="26" as="geometry" />
        </mxCell>
        <mxCell id="-O3e9xHYWyKH3gtKNk9v-151" value="Use" style="endArrow=open;endSize=12;dashed=1;html=1;rounded=0;exitX=0;exitY=0.5;exitDx=0;exitDy=0;" edge="1" parent="-O3e9xHYWyKH3gtKNk9v-94" source="-O3e9xHYWyKH3gtKNk9v-145" target="-O3e9xHYWyKH3gtKNk9v-147">
          <mxGeometry width="160" relative="1" as="geometry">
            <mxPoint x="585" y="348" as="sourcePoint" />
            <mxPoint x="460" y="373" as="targetPoint" />
          </mxGeometry>
        </mxCell>
        <mxCell id="-O3e9xHYWyKH3gtKNk9v-152" value="return" style="html=1;verticalAlign=bottom;endArrow=open;dashed=1;endSize=8;curved=0;rounded=0;exitX=1;exitY=0.5;exitDx=0;exitDy=0;" edge="1" parent="-O3e9xHYWyKH3gtKNk9v-94" source="-O3e9xHYWyKH3gtKNk9v-145" target="-O3e9xHYWyKH3gtKNk9v-109">
          <mxGeometry relative="1" as="geometry">
            <mxPoint x="745" y="345" as="sourcePoint" />
            <mxPoint x="970" y="337" as="targetPoint" />
          </mxGeometry>
        </mxCell>
        <mxCell id="-O3e9xHYWyKH3gtKNk9v-156" value="router/page.js" style="swimlane;whiteSpace=wrap;html=1;" vertex="1" parent="1">
          <mxGeometry x="757" y="1850" width="1310" height="610" as="geometry" />
        </mxCell>
        <mxCell id="-O3e9xHYWyKH3gtKNk9v-157" value="/page" style="swimlane;fontStyle=1;align=center;verticalAlign=top;childLayout=stackLayout;horizontal=1;startSize=26;horizontalStack=0;resizeParent=1;resizeParentMax=0;resizeLast=0;collapsible=1;marginBottom=0;whiteSpace=wrap;html=1;" vertex="1" parent="-O3e9xHYWyKH3gtKNk9v-156">
          <mxGeometry x="575" y="221" width="160" height="156" as="geometry" />
        </mxCell>
        <mxCell id="-O3e9xHYWyKH3gtKNk9v-158" value="+ GET /" style="text;strokeColor=none;fillColor=none;align=left;verticalAlign=top;spacingLeft=4;spacingRight=4;overflow=hidden;rotatable=0;points=[[0,0.5],[1,0.5]];portConstraint=eastwest;whiteSpace=wrap;html=1;" vertex="1" parent="-O3e9xHYWyKH3gtKNk9v-157">
          <mxGeometry y="26" width="160" height="26" as="geometry" />
        </mxCell>
        <mxCell id="-O3e9xHYWyKH3gtKNk9v-215" value="+ GET /total" style="text;strokeColor=none;fillColor=none;align=left;verticalAlign=top;spacingLeft=4;spacingRight=4;overflow=hidden;rotatable=0;points=[[0,0.5],[1,0.5]];portConstraint=eastwest;whiteSpace=wrap;html=1;" vertex="1" parent="-O3e9xHYWyKH3gtKNk9v-157">
          <mxGeometry y="52" width="160" height="26" as="geometry" />
        </mxCell>
        <mxCell id="-O3e9xHYWyKH3gtKNk9v-159" value="+ POST /" style="text;strokeColor=none;fillColor=none;align=left;verticalAlign=top;spacingLeft=4;spacingRight=4;overflow=hidden;rotatable=0;points=[[0,0.5],[1,0.5]];portConstraint=eastwest;whiteSpace=wrap;html=1;" vertex="1" parent="-O3e9xHYWyKH3gtKNk9v-157">
          <mxGeometry y="78" width="160" height="26" as="geometry" />
        </mxCell>
        <mxCell id="-O3e9xHYWyKH3gtKNk9v-160" value="+ PUT /" style="text;strokeColor=none;fillColor=none;align=left;verticalAlign=top;spacingLeft=4;spacingRight=4;overflow=hidden;rotatable=0;points=[[0,0.5],[1,0.5]];portConstraint=eastwest;whiteSpace=wrap;html=1;" vertex="1" parent="-O3e9xHYWyKH3gtKNk9v-157">
          <mxGeometry y="104" width="160" height="26" as="geometry" />
        </mxCell>
        <mxCell id="-O3e9xHYWyKH3gtKNk9v-161" value="+ DELETE /" style="text;strokeColor=none;fillColor=none;align=left;verticalAlign=top;spacingLeft=4;spacingRight=4;overflow=hidden;rotatable=0;points=[[0,0.5],[1,0.5]];portConstraint=eastwest;whiteSpace=wrap;html=1;" vertex="1" parent="-O3e9xHYWyKH3gtKNk9v-157">
          <mxGeometry y="130" width="160" height="26" as="geometry" />
        </mxCell>
        <mxCell id="-O3e9xHYWyKH3gtKNk9v-163" value="return" style="html=1;verticalAlign=bottom;endArrow=open;dashed=1;endSize=8;curved=0;rounded=0;exitX=1;exitY=0.5;exitDx=0;exitDy=0;" edge="1" parent="-O3e9xHYWyKH3gtKNk9v-156" source="-O3e9xHYWyKH3gtKNk9v-158" target="-O3e9xHYWyKH3gtKNk9v-189">
          <mxGeometry relative="1" as="geometry">
            <mxPoint x="450" y="240" as="sourcePoint" />
            <mxPoint x="770" y="140" as="targetPoint" />
          </mxGeometry>
        </mxCell>
        <mxCell id="-O3e9xHYWyKH3gtKNk9v-170" value="json" style="swimlane;fontStyle=0;childLayout=stackLayout;horizontal=1;startSize=26;fillColor=none;horizontalStack=0;resizeParent=1;resizeParentMax=0;resizeLast=0;collapsible=1;marginBottom=0;whiteSpace=wrap;html=1;" vertex="1" parent="-O3e9xHYWyKH3gtKNk9v-156">
          <mxGeometry x="200" y="500" width="170" height="104" as="geometry" />
        </mxCell>
        <mxCell id="-O3e9xHYWyKH3gtKNk9v-171" value="- doc_name : string" style="text;strokeColor=none;fillColor=none;align=left;verticalAlign=top;spacingLeft=4;spacingRight=4;overflow=hidden;rotatable=0;points=[[0,0.5],[1,0.5]];portConstraint=eastwest;whiteSpace=wrap;html=1;" vertex="1" parent="-O3e9xHYWyKH3gtKNk9v-170">
          <mxGeometry y="26" width="170" height="26" as="geometry" />
        </mxCell>
        <mxCell id="-O3e9xHYWyKH3gtKNk9v-172" value="- chapter_id : string | number" style="text;strokeColor=none;fillColor=none;align=left;verticalAlign=top;spacingLeft=4;spacingRight=4;overflow=hidden;rotatable=0;points=[[0,0.5],[1,0.5]];portConstraint=eastwest;whiteSpace=wrap;html=1;" vertex="1" parent="-O3e9xHYWyKH3gtKNk9v-170">
          <mxGeometry y="52" width="170" height="26" as="geometry" />
        </mxCell>
        <mxCell id="-O3e9xHYWyKH3gtKNk9v-245" value="- page_num" style="text;strokeColor=none;fillColor=none;align=left;verticalAlign=top;spacingLeft=4;spacingRight=4;overflow=hidden;rotatable=0;points=[[0,0.5],[1,0.5]];portConstraint=eastwest;whiteSpace=wrap;html=1;" vertex="1" parent="-O3e9xHYWyKH3gtKNk9v-170">
          <mxGeometry y="78" width="170" height="26" as="geometry" />
        </mxCell>
        <mxCell id="-O3e9xHYWyKH3gtKNk9v-173" value="Use" style="endArrow=open;endSize=12;dashed=1;html=1;rounded=0;exitX=0;exitY=0.5;exitDx=0;exitDy=0;" edge="1" parent="-O3e9xHYWyKH3gtKNk9v-156" source="-O3e9xHYWyKH3gtKNk9v-159" target="-O3e9xHYWyKH3gtKNk9v-196">
          <mxGeometry width="160" relative="1" as="geometry">
            <mxPoint x="440" y="300" as="sourcePoint" />
            <mxPoint x="600" y="300" as="targetPoint" />
          </mxGeometry>
        </mxCell>
        <mxCell id="-O3e9xHYWyKH3gtKNk9v-174" value="status" style="swimlane;fontStyle=0;childLayout=stackLayout;horizontal=1;startSize=26;fillColor=none;horizontalStack=0;resizeParent=1;resizeParentMax=0;resizeLast=0;collapsible=1;marginBottom=0;whiteSpace=wrap;html=1;" vertex="1" parent="-O3e9xHYWyKH3gtKNk9v-156">
          <mxGeometry x="940" y="360" width="140" height="130" as="geometry" />
        </mxCell>
        <mxCell id="-O3e9xHYWyKH3gtKNk9v-175" value="- ok : bool" style="text;strokeColor=none;fillColor=none;align=left;verticalAlign=top;spacingLeft=4;spacingRight=4;overflow=hidden;rotatable=0;points=[[0,0.5],[1,0.5]];portConstraint=eastwest;whiteSpace=wrap;html=1;" vertex="1" parent="-O3e9xHYWyKH3gtKNk9v-174">
          <mxGeometry y="26" width="140" height="26" as="geometry" />
        </mxCell>
        <mxCell id="-O3e9xHYWyKH3gtKNk9v-176" value="json" style="swimlane;fontStyle=0;childLayout=stackLayout;horizontal=1;startSize=26;fillColor=none;horizontalStack=0;resizeParent=1;resizeParentMax=0;resizeLast=0;collapsible=1;marginBottom=0;whiteSpace=wrap;html=1;" vertex="1" parent="-O3e9xHYWyKH3gtKNk9v-174">
          <mxGeometry y="52" width="140" height="78" as="geometry" />
        </mxCell>
        <mxCell id="-O3e9xHYWyKH3gtKNk9v-177" value="- msg : string" style="text;strokeColor=none;fillColor=none;align=left;verticalAlign=top;spacingLeft=4;spacingRight=4;overflow=hidden;rotatable=0;points=[[0,0.5],[1,0.5]];portConstraint=eastwest;whiteSpace=wrap;html=1;" vertex="1" parent="-O3e9xHYWyKH3gtKNk9v-176">
          <mxGeometry y="26" width="140" height="26" as="geometry" />
        </mxCell>
        <mxCell id="-O3e9xHYWyKH3gtKNk9v-178" value="- err : string" style="text;strokeColor=none;fillColor=none;align=left;verticalAlign=top;spacingLeft=4;spacingRight=4;overflow=hidden;rotatable=0;points=[[0,0.5],[1,0.5]];portConstraint=eastwest;whiteSpace=wrap;html=1;" vertex="1" parent="-O3e9xHYWyKH3gtKNk9v-176">
          <mxGeometry y="52" width="140" height="26" as="geometry" />
        </mxCell>
        <mxCell id="-O3e9xHYWyKH3gtKNk9v-179" value="return" style="html=1;verticalAlign=bottom;endArrow=open;dashed=1;endSize=8;curved=0;rounded=0;exitX=1;exitY=0.5;exitDx=0;exitDy=0;" edge="1" parent="-O3e9xHYWyKH3gtKNk9v-156" source="-O3e9xHYWyKH3gtKNk9v-159" target="-O3e9xHYWyKH3gtKNk9v-174">
          <mxGeometry relative="1" as="geometry">
            <mxPoint x="900" y="390" as="sourcePoint" />
            <mxPoint x="480" y="300" as="targetPoint" />
          </mxGeometry>
        </mxCell>
        <mxCell id="-O3e9xHYWyKH3gtKNk9v-185" value="Use" style="endArrow=open;endSize=12;dashed=1;html=1;rounded=0;exitX=0;exitY=0.5;exitDx=0;exitDy=0;" edge="1" parent="-O3e9xHYWyKH3gtKNk9v-156" source="-O3e9xHYWyKH3gtKNk9v-160" target="-O3e9xHYWyKH3gtKNk9v-238">
          <mxGeometry width="160" relative="1" as="geometry">
            <mxPoint x="640" y="400" as="sourcePoint" />
            <mxPoint x="200" y="425.228260869565" as="targetPoint" />
          </mxGeometry>
        </mxCell>
        <mxCell id="-O3e9xHYWyKH3gtKNk9v-186" value="return" style="html=1;verticalAlign=bottom;endArrow=open;dashed=1;endSize=8;curved=0;rounded=0;exitX=1;exitY=0.5;exitDx=0;exitDy=0;" edge="1" parent="-O3e9xHYWyKH3gtKNk9v-156" source="-O3e9xHYWyKH3gtKNk9v-160" target="-O3e9xHYWyKH3gtKNk9v-174">
          <mxGeometry relative="1" as="geometry">
            <mxPoint x="745" y="296" as="sourcePoint" />
            <mxPoint x="1120" y="296" as="targetPoint" />
          </mxGeometry>
        </mxCell>
        <mxCell id="-O3e9xHYWyKH3gtKNk9v-187" value="status" style="swimlane;fontStyle=0;childLayout=stackLayout;horizontal=1;startSize=26;fillColor=none;horizontalStack=0;resizeParent=1;resizeParentMax=0;resizeLast=0;collapsible=1;marginBottom=0;whiteSpace=wrap;html=1;" vertex="1" parent="-O3e9xHYWyKH3gtKNk9v-156">
          <mxGeometry x="950" y="27" width="140" height="260" as="geometry" />
        </mxCell>
        <mxCell id="-O3e9xHYWyKH3gtKNk9v-188" value="- ok : bool" style="text;strokeColor=none;fillColor=none;align=left;verticalAlign=top;spacingLeft=4;spacingRight=4;overflow=hidden;rotatable=0;points=[[0,0.5],[1,0.5]];portConstraint=eastwest;whiteSpace=wrap;html=1;" vertex="1" parent="-O3e9xHYWyKH3gtKNk9v-187">
          <mxGeometry y="26" width="140" height="26" as="geometry" />
        </mxCell>
        <mxCell id="-O3e9xHYWyKH3gtKNk9v-189" value="json" style="swimlane;fontStyle=0;childLayout=stackLayout;horizontal=1;startSize=26;fillColor=none;horizontalStack=0;resizeParent=1;resizeParentMax=0;resizeLast=0;collapsible=1;marginBottom=0;whiteSpace=wrap;html=1;" vertex="1" parent="-O3e9xHYWyKH3gtKNk9v-187">
          <mxGeometry y="52" width="140" height="208" as="geometry" />
        </mxCell>
        <mxCell id="-O3e9xHYWyKH3gtKNk9v-190" value="- chapter_id" style="text;strokeColor=none;fillColor=none;align=left;verticalAlign=top;spacingLeft=4;spacingRight=4;overflow=hidden;rotatable=0;points=[[0,0.5],[1,0.5]];portConstraint=eastwest;whiteSpace=wrap;html=1;" vertex="1" parent="-O3e9xHYWyKH3gtKNk9v-189">
          <mxGeometry y="26" width="140" height="26" as="geometry" />
        </mxCell>
        <mxCell id="-O3e9xHYWyKH3gtKNk9v-207" value="- page_num" style="text;strokeColor=none;fillColor=none;align=left;verticalAlign=top;spacingLeft=4;spacingRight=4;overflow=hidden;rotatable=0;points=[[0,0.5],[1,0.5]];portConstraint=eastwest;whiteSpace=wrap;html=1;" vertex="1" parent="-O3e9xHYWyKH3gtKNk9v-189">
          <mxGeometry y="52" width="140" height="26" as="geometry" />
        </mxCell>
        <mxCell id="-O3e9xHYWyKH3gtKNk9v-208" value="- last_local" style="text;strokeColor=none;fillColor=none;align=left;verticalAlign=top;spacingLeft=4;spacingRight=4;overflow=hidden;rotatable=0;points=[[0,0.5],[1,0.5]];portConstraint=eastwest;whiteSpace=wrap;html=1;" vertex="1" parent="-O3e9xHYWyKH3gtKNk9v-189">
          <mxGeometry y="78" width="140" height="26" as="geometry" />
        </mxCell>
        <mxCell id="-O3e9xHYWyKH3gtKNk9v-209" value="- format" style="text;strokeColor=none;fillColor=none;align=left;verticalAlign=top;spacingLeft=4;spacingRight=4;overflow=hidden;rotatable=0;points=[[0,0.5],[1,0.5]];portConstraint=eastwest;whiteSpace=wrap;html=1;" vertex="1" parent="-O3e9xHYWyKH3gtKNk9v-189">
          <mxGeometry y="104" width="140" height="26" as="geometry" />
        </mxCell>
        <mxCell id="-O3e9xHYWyKH3gtKNk9v-210" value="- content" style="text;strokeColor=none;fillColor=none;align=left;verticalAlign=top;spacingLeft=4;spacingRight=4;overflow=hidden;rotatable=0;points=[[0,0.5],[1,0.5]];portConstraint=eastwest;whiteSpace=wrap;html=1;" vertex="1" parent="-O3e9xHYWyKH3gtKNk9v-189">
          <mxGeometry y="130" width="140" height="26" as="geometry" />
        </mxCell>
        <mxCell id="-O3e9xHYWyKH3gtKNk9v-211" value="- plain_text" style="text;strokeColor=none;fillColor=none;align=left;verticalAlign=top;spacingLeft=4;spacingRight=4;overflow=hidden;rotatable=0;points=[[0,0.5],[1,0.5]];portConstraint=eastwest;whiteSpace=wrap;html=1;" vertex="1" parent="-O3e9xHYWyKH3gtKNk9v-189">
          <mxGeometry y="156" width="140" height="26" as="geometry" />
        </mxCell>
        <mxCell id="-O3e9xHYWyKH3gtKNk9v-212" value="- current_version" style="text;strokeColor=none;fillColor=none;align=left;verticalAlign=top;spacingLeft=4;spacingRight=4;overflow=hidden;rotatable=0;points=[[0,0.5],[1,0.5]];portConstraint=eastwest;whiteSpace=wrap;html=1;" vertex="1" parent="-O3e9xHYWyKH3gtKNk9v-189">
          <mxGeometry y="182" width="140" height="26" as="geometry" />
        </mxCell>
        <mxCell id="-O3e9xHYWyKH3gtKNk9v-191" value="Use" style="endArrow=open;endSize=12;dashed=1;html=1;rounded=0;exitX=0;exitY=0.5;exitDx=0;exitDy=0;" edge="1" parent="-O3e9xHYWyKH3gtKNk9v-156" source="-O3e9xHYWyKH3gtKNk9v-161" target="-O3e9xHYWyKH3gtKNk9v-170">
          <mxGeometry width="160" relative="1" as="geometry">
            <mxPoint x="529" y="448" as="sourcePoint" />
            <mxPoint x="374" y="403" as="targetPoint" />
          </mxGeometry>
        </mxCell>
        <mxCell id="-O3e9xHYWyKH3gtKNk9v-192" value="return" style="html=1;verticalAlign=bottom;endArrow=open;dashed=1;endSize=8;curved=0;rounded=0;exitX=1;exitY=0.5;exitDx=0;exitDy=0;" edge="1" parent="-O3e9xHYWyKH3gtKNk9v-156" source="-O3e9xHYWyKH3gtKNk9v-161" target="-O3e9xHYWyKH3gtKNk9v-174">
          <mxGeometry relative="1" as="geometry">
            <mxPoint x="745" y="322" as="sourcePoint" />
            <mxPoint x="970" y="322" as="targetPoint" />
          </mxGeometry>
        </mxCell>
        <mxCell id="-O3e9xHYWyKH3gtKNk9v-193" value="query" style="swimlane;fontStyle=0;childLayout=stackLayout;horizontal=1;startSize=26;fillColor=none;horizontalStack=0;resizeParent=1;resizeParentMax=0;resizeLast=0;collapsible=1;marginBottom=0;whiteSpace=wrap;html=1;" vertex="1" parent="-O3e9xHYWyKH3gtKNk9v-156">
          <mxGeometry x="370" y="80" width="180" height="104" as="geometry" />
        </mxCell>
        <mxCell id="-O3e9xHYWyKH3gtKNk9v-194" value="+ doc_name : string" style="text;strokeColor=none;fillColor=none;align=left;verticalAlign=top;spacingLeft=4;spacingRight=4;overflow=hidden;rotatable=0;points=[[0,0.5],[1,0.5]];portConstraint=eastwest;whiteSpace=wrap;html=1;" vertex="1" parent="-O3e9xHYWyKH3gtKNk9v-193">
          <mxGeometry y="26" width="180" height="26" as="geometry" />
        </mxCell>
        <mxCell id="-O3e9xHYWyKH3gtKNk9v-213" value="- chapter_id : string | number" style="text;strokeColor=none;fillColor=none;align=left;verticalAlign=top;spacingLeft=4;spacingRight=4;overflow=hidden;rotatable=0;points=[[0,0.5],[1,0.5]];portConstraint=eastwest;whiteSpace=wrap;html=1;" vertex="1" parent="-O3e9xHYWyKH3gtKNk9v-193">
          <mxGeometry y="52" width="180" height="26" as="geometry" />
        </mxCell>
        <mxCell id="-O3e9xHYWyKH3gtKNk9v-214" value="- page_num : string | number" style="text;strokeColor=none;fillColor=none;align=left;verticalAlign=top;spacingLeft=4;spacingRight=4;overflow=hidden;rotatable=0;points=[[0,0.5],[1,0.5]];portConstraint=eastwest;whiteSpace=wrap;html=1;" vertex="1" parent="-O3e9xHYWyKH3gtKNk9v-193">
          <mxGeometry y="78" width="180" height="26" as="geometry" />
        </mxCell>
        <mxCell id="-O3e9xHYWyKH3gtKNk9v-195" value="Use" style="endArrow=open;endSize=12;dashed=1;html=1;rounded=0;exitX=0;exitY=0.5;exitDx=0;exitDy=0;" edge="1" parent="-O3e9xHYWyKH3gtKNk9v-156" source="-O3e9xHYWyKH3gtKNk9v-158" target="-O3e9xHYWyKH3gtKNk9v-193">
          <mxGeometry width="160" relative="1" as="geometry">
            <mxPoint x="557.5" y="240" as="sourcePoint" />
            <mxPoint x="302.5" y="240" as="targetPoint" />
          </mxGeometry>
        </mxCell>
        <mxCell id="-O3e9xHYWyKH3gtKNk9v-196" value="json" style="swimlane;fontStyle=0;childLayout=stackLayout;horizontal=1;startSize=26;fillColor=none;horizontalStack=0;resizeParent=1;resizeParentMax=0;resizeLast=0;collapsible=1;marginBottom=0;whiteSpace=wrap;html=1;" vertex="1" parent="-O3e9xHYWyKH3gtKNk9v-156">
          <mxGeometry x="60" y="169" width="140" height="156" as="geometry" />
        </mxCell>
        <mxCell id="-O3e9xHYWyKH3gtKNk9v-197" value="- doc_name : string" style="text;strokeColor=none;fillColor=none;align=left;verticalAlign=top;spacingLeft=4;spacingRight=4;overflow=hidden;rotatable=0;points=[[0,0.5],[1,0.5]];portConstraint=eastwest;whiteSpace=wrap;html=1;" vertex="1" parent="-O3e9xHYWyKH3gtKNk9v-196">
          <mxGeometry y="26" width="140" height="26" as="geometry" />
        </mxCell>
        <mxCell id="-O3e9xHYWyKH3gtKNk9v-198" value="- chapter_id" style="text;strokeColor=none;fillColor=none;align=left;verticalAlign=top;spacingLeft=4;spacingRight=4;overflow=hidden;rotatable=0;points=[[0,0.5],[1,0.5]];portConstraint=eastwest;whiteSpace=wrap;html=1;" vertex="1" parent="-O3e9xHYWyKH3gtKNk9v-196">
          <mxGeometry y="52" width="140" height="26" as="geometry" />
        </mxCell>
        <mxCell id="-O3e9xHYWyKH3gtKNk9v-235" value="- page_num" style="text;strokeColor=none;fillColor=none;align=left;verticalAlign=top;spacingLeft=4;spacingRight=4;overflow=hidden;rotatable=0;points=[[0,0.5],[1,0.5]];portConstraint=eastwest;whiteSpace=wrap;html=1;" vertex="1" parent="-O3e9xHYWyKH3gtKNk9v-196">
          <mxGeometry y="78" width="140" height="26" as="geometry" />
        </mxCell>
        <mxCell id="-O3e9xHYWyKH3gtKNk9v-236" value="- content" style="text;strokeColor=none;fillColor=none;align=left;verticalAlign=top;spacingLeft=4;spacingRight=4;overflow=hidden;rotatable=0;points=[[0,0.5],[1,0.5]];portConstraint=eastwest;whiteSpace=wrap;html=1;" vertex="1" parent="-O3e9xHYWyKH3gtKNk9v-196">
          <mxGeometry y="104" width="140" height="26" as="geometry" />
        </mxCell>
        <mxCell id="-O3e9xHYWyKH3gtKNk9v-237" value="- plain_text" style="text;strokeColor=none;fillColor=none;align=left;verticalAlign=top;spacingLeft=4;spacingRight=4;overflow=hidden;rotatable=0;points=[[0,0.5],[1,0.5]];portConstraint=eastwest;whiteSpace=wrap;html=1;" vertex="1" parent="-O3e9xHYWyKH3gtKNk9v-196">
          <mxGeometry y="130" width="140" height="26" as="geometry" />
        </mxCell>
        <mxCell id="-O3e9xHYWyKH3gtKNk9v-229" value="status" style="swimlane;fontStyle=0;childLayout=stackLayout;horizontal=1;startSize=26;fillColor=none;horizontalStack=0;resizeParent=1;resizeParentMax=0;resizeLast=0;collapsible=1;marginBottom=0;whiteSpace=wrap;html=1;" vertex="1" parent="-O3e9xHYWyKH3gtKNk9v-156">
          <mxGeometry x="1120" y="280" width="170" height="130" as="geometry" />
        </mxCell>
        <mxCell id="-O3e9xHYWyKH3gtKNk9v-230" value="- ok : bool" style="text;strokeColor=none;fillColor=none;align=left;verticalAlign=top;spacingLeft=4;spacingRight=4;overflow=hidden;rotatable=0;points=[[0,0.5],[1,0.5]];portConstraint=eastwest;whiteSpace=wrap;html=1;" vertex="1" parent="-O3e9xHYWyKH3gtKNk9v-229">
          <mxGeometry y="26" width="170" height="26" as="geometry" />
        </mxCell>
        <mxCell id="-O3e9xHYWyKH3gtKNk9v-231" value="json" style="swimlane;fontStyle=0;childLayout=stackLayout;horizontal=1;startSize=26;fillColor=none;horizontalStack=0;resizeParent=1;resizeParentMax=0;resizeLast=0;collapsible=1;marginBottom=0;whiteSpace=wrap;html=1;" vertex="1" parent="-O3e9xHYWyKH3gtKNk9v-229">
          <mxGeometry y="52" width="170" height="78" as="geometry" />
        </mxCell>
        <mxCell id="-O3e9xHYWyKH3gtKNk9v-232" value="- obj : { total_pages:number }" style="text;strokeColor=none;fillColor=none;align=left;verticalAlign=top;spacingLeft=4;spacingRight=4;overflow=hidden;rotatable=0;points=[[0,0.5],[1,0.5]];portConstraint=eastwest;whiteSpace=wrap;html=1;" vertex="1" parent="-O3e9xHYWyKH3gtKNk9v-231">
          <mxGeometry y="26" width="170" height="26" as="geometry" />
        </mxCell>
        <mxCell id="-O3e9xHYWyKH3gtKNk9v-233" value="- err : string" style="text;strokeColor=none;fillColor=none;align=left;verticalAlign=top;spacingLeft=4;spacingRight=4;overflow=hidden;rotatable=0;points=[[0,0.5],[1,0.5]];portConstraint=eastwest;whiteSpace=wrap;html=1;" vertex="1" parent="-O3e9xHYWyKH3gtKNk9v-231">
          <mxGeometry y="52" width="170" height="26" as="geometry" />
        </mxCell>
        <mxCell id="-O3e9xHYWyKH3gtKNk9v-234" value="return" style="html=1;verticalAlign=bottom;endArrow=open;dashed=1;endSize=8;curved=0;rounded=0;exitX=1;exitY=0.5;exitDx=0;exitDy=0;" edge="1" parent="-O3e9xHYWyKH3gtKNk9v-156" source="-O3e9xHYWyKH3gtKNk9v-215" target="-O3e9xHYWyKH3gtKNk9v-229">
          <mxGeometry relative="1" as="geometry">
            <mxPoint x="550" y="877" as="sourcePoint" />
            <mxPoint x="745" y="880" as="targetPoint" />
          </mxGeometry>
        </mxCell>
        <mxCell id="-O3e9xHYWyKH3gtKNk9v-225" value="query" style="swimlane;fontStyle=0;childLayout=stackLayout;horizontal=1;startSize=26;fillColor=none;horizontalStack=0;resizeParent=1;resizeParentMax=0;resizeLast=0;collapsible=1;marginBottom=0;whiteSpace=wrap;html=1;" vertex="1" parent="-O3e9xHYWyKH3gtKNk9v-156">
          <mxGeometry x="70" y="60" width="180" height="78" as="geometry" />
        </mxCell>
        <mxCell id="-O3e9xHYWyKH3gtKNk9v-226" value="+ doc_name : string" style="text;strokeColor=none;fillColor=none;align=left;verticalAlign=top;spacingLeft=4;spacingRight=4;overflow=hidden;rotatable=0;points=[[0,0.5],[1,0.5]];portConstraint=eastwest;whiteSpace=wrap;html=1;" vertex="1" parent="-O3e9xHYWyKH3gtKNk9v-225">
          <mxGeometry y="26" width="180" height="26" as="geometry" />
        </mxCell>
        <mxCell id="-O3e9xHYWyKH3gtKNk9v-227" value="- chapter_id : string | number" style="text;strokeColor=none;fillColor=none;align=left;verticalAlign=top;spacingLeft=4;spacingRight=4;overflow=hidden;rotatable=0;points=[[0,0.5],[1,0.5]];portConstraint=eastwest;whiteSpace=wrap;html=1;" vertex="1" parent="-O3e9xHYWyKH3gtKNk9v-225">
          <mxGeometry y="52" width="180" height="26" as="geometry" />
        </mxCell>
        <mxCell id="-O3e9xHYWyKH3gtKNk9v-224" value="Use" style="endArrow=open;endSize=12;dashed=1;html=1;rounded=0;exitX=0;exitY=0.5;exitDx=0;exitDy=0;" edge="1" parent="-O3e9xHYWyKH3gtKNk9v-156" source="-O3e9xHYWyKH3gtKNk9v-215" target="-O3e9xHYWyKH3gtKNk9v-225">
          <mxGeometry width="160" relative="1" as="geometry">
            <mxPoint x="360" y="794" as="sourcePoint" />
            <mxPoint x="520" y="794" as="targetPoint" />
          </mxGeometry>
        </mxCell>
        <mxCell id="-O3e9xHYWyKH3gtKNk9v-238" value="json" style="swimlane;fontStyle=0;childLayout=stackLayout;horizontal=1;startSize=26;fillColor=none;horizontalStack=0;resizeParent=1;resizeParentMax=0;resizeLast=0;collapsible=1;marginBottom=0;whiteSpace=wrap;html=1;" vertex="1" parent="-O3e9xHYWyKH3gtKNk9v-156">
          <mxGeometry x="30" y="350" width="140" height="182" as="geometry" />
        </mxCell>
        <mxCell id="-O3e9xHYWyKH3gtKNk9v-239" value="- doc_name : string" style="text;strokeColor=none;fillColor=none;align=left;verticalAlign=top;spacingLeft=4;spacingRight=4;overflow=hidden;rotatable=0;points=[[0,0.5],[1,0.5]];portConstraint=eastwest;whiteSpace=wrap;html=1;" vertex="1" parent="-O3e9xHYWyKH3gtKNk9v-238">
          <mxGeometry y="26" width="140" height="26" as="geometry" />
        </mxCell>
        <mxCell id="-O3e9xHYWyKH3gtKNk9v-240" value="- chapter_id" style="text;strokeColor=none;fillColor=none;align=left;verticalAlign=top;spacingLeft=4;spacingRight=4;overflow=hidden;rotatable=0;points=[[0,0.5],[1,0.5]];portConstraint=eastwest;whiteSpace=wrap;html=1;" vertex="1" parent="-O3e9xHYWyKH3gtKNk9v-238">
          <mxGeometry y="52" width="140" height="26" as="geometry" />
        </mxCell>
        <mxCell id="-O3e9xHYWyKH3gtKNk9v-241" value="- page_num" style="text;strokeColor=none;fillColor=none;align=left;verticalAlign=top;spacingLeft=4;spacingRight=4;overflow=hidden;rotatable=0;points=[[0,0.5],[1,0.5]];portConstraint=eastwest;whiteSpace=wrap;html=1;" vertex="1" parent="-O3e9xHYWyKH3gtKNk9v-238">
          <mxGeometry y="78" width="140" height="26" as="geometry" />
        </mxCell>
        <mxCell id="-O3e9xHYWyKH3gtKNk9v-242" value="- content" style="text;strokeColor=none;fillColor=none;align=left;verticalAlign=top;spacingLeft=4;spacingRight=4;overflow=hidden;rotatable=0;points=[[0,0.5],[1,0.5]];portConstraint=eastwest;whiteSpace=wrap;html=1;" vertex="1" parent="-O3e9xHYWyKH3gtKNk9v-238">
          <mxGeometry y="104" width="140" height="26" as="geometry" />
        </mxCell>
        <mxCell id="-O3e9xHYWyKH3gtKNk9v-243" value="- plain_text" style="text;strokeColor=none;fillColor=none;align=left;verticalAlign=top;spacingLeft=4;spacingRight=4;overflow=hidden;rotatable=0;points=[[0,0.5],[1,0.5]];portConstraint=eastwest;whiteSpace=wrap;html=1;" vertex="1" parent="-O3e9xHYWyKH3gtKNk9v-238">
          <mxGeometry y="130" width="140" height="26" as="geometry" />
        </mxCell>
        <mxCell id="-O3e9xHYWyKH3gtKNk9v-244" value="- last_local" style="text;strokeColor=none;fillColor=none;align=left;verticalAlign=top;spacingLeft=4;spacingRight=4;overflow=hidden;rotatable=0;points=[[0,0.5],[1,0.5]];portConstraint=eastwest;whiteSpace=wrap;html=1;" vertex="1" parent="-O3e9xHYWyKH3gtKNk9v-238">
          <mxGeometry y="156" width="140" height="26" as="geometry" />
        </mxCell>
        <mxCell id="-O3e9xHYWyKH3gtKNk9v-246" value="" style="endArrow=block;dashed=1;endFill=0;endSize=12;html=1;rounded=0;" edge="1" parent="1" source="-O3e9xHYWyKH3gtKNk9v-23" target="-O3e9xHYWyKH3gtKNk9v-15">
          <mxGeometry width="160" relative="1" as="geometry">
            <mxPoint x="500" y="1840" as="sourcePoint" />
            <mxPoint x="1050" y="1620" as="targetPoint" />
          </mxGeometry>
        </mxCell>
        <mxCell id="-O3e9xHYWyKH3gtKNk9v-247" value="" style="endArrow=block;dashed=1;endFill=0;endSize=12;html=1;rounded=0;" edge="1" parent="1" source="-O3e9xHYWyKH3gtKNk9v-94" target="-O3e9xHYWyKH3gtKNk9v-16">
          <mxGeometry width="160" relative="1" as="geometry">
            <mxPoint x="446" y="1830" as="sourcePoint" />
            <mxPoint x="305" y="1650" as="targetPoint" />
          </mxGeometry>
        </mxCell>
        <mxCell id="-O3e9xHYWyKH3gtKNk9v-248" value="" style="endArrow=block;dashed=1;endFill=0;endSize=12;html=1;rounded=0;" edge="1" parent="1" source="-O3e9xHYWyKH3gtKNk9v-156" target="-O3e9xHYWyKH3gtKNk9v-17">
          <mxGeometry width="160" relative="1" as="geometry">
            <mxPoint x="632" y="2530" as="sourcePoint" />
            <mxPoint x="421" y="1650" as="targetPoint" />
          </mxGeometry>
        </mxCell>
        <mxCell id="-O3e9xHYWyKH3gtKNk9v-305" value="章节界面用例" style="swimlane;whiteSpace=wrap;html=1;" vertex="1" parent="1">
          <mxGeometry x="827" y="115" width="590" height="470" as="geometry" />
        </mxCell>
        <mxCell id="-O3e9xHYWyKH3gtKNk9v-306" value="访客" style="shape=umlActor;verticalLabelPosition=bottom;verticalAlign=top;html=1;" vertex="1" parent="-O3e9xHYWyKH3gtKNk9v-305">
          <mxGeometry x="100" y="215" width="30" height="60" as="geometry" />
        </mxCell>
        <mxCell id="-O3e9xHYWyKH3gtKNk9v-307" value="新建章节" style="ellipse;whiteSpace=wrap;html=1;" vertex="1" parent="-O3e9xHYWyKH3gtKNk9v-305">
          <mxGeometry x="360" y="165" width="140" height="70" as="geometry" />
        </mxCell>
        <mxCell id="-O3e9xHYWyKH3gtKNk9v-308" value="" style="endArrow=none;html=1;rounded=0;" edge="1" parent="-O3e9xHYWyKH3gtKNk9v-305" source="-O3e9xHYWyKH3gtKNk9v-306" target="-O3e9xHYWyKH3gtKNk9v-307">
          <mxGeometry width="50" height="50" relative="1" as="geometry">
            <mxPoint x="250" y="170" as="sourcePoint" />
            <mxPoint x="440" y="310" as="targetPoint" />
          </mxGeometry>
        </mxCell>
        <mxCell id="-O3e9xHYWyKH3gtKNk9v-309" value="删除章节" style="ellipse;whiteSpace=wrap;html=1;" vertex="1" parent="-O3e9xHYWyKH3gtKNk9v-305">
          <mxGeometry x="360" y="345" width="140" height="70" as="geometry" />
        </mxCell>
        <mxCell id="-O3e9xHYWyKH3gtKNk9v-310" value="" style="endArrow=none;html=1;rounded=0;" edge="1" parent="-O3e9xHYWyKH3gtKNk9v-305" source="-O3e9xHYWyKH3gtKNk9v-306" target="-O3e9xHYWyKH3gtKNk9v-309">
          <mxGeometry width="50" height="50" relative="1" as="geometry">
            <mxPoint x="390" y="260" as="sourcePoint" />
            <mxPoint x="410" y="380" as="targetPoint" />
          </mxGeometry>
        </mxCell>
        <mxCell id="-O3e9xHYWyKH3gtKNk9v-311" value="修改章节" style="ellipse;whiteSpace=wrap;html=1;" vertex="1" parent="-O3e9xHYWyKH3gtKNk9v-305">
          <mxGeometry x="360" y="255" width="140" height="70" as="geometry" />
        </mxCell>
        <mxCell id="-O3e9xHYWyKH3gtKNk9v-312" value="" style="endArrow=none;html=1;rounded=0;" edge="1" parent="-O3e9xHYWyKH3gtKNk9v-305" source="-O3e9xHYWyKH3gtKNk9v-306" target="-O3e9xHYWyKH3gtKNk9v-311">
          <mxGeometry width="50" height="50" relative="1" as="geometry">
            <mxPoint x="390" y="260" as="sourcePoint" />
            <mxPoint x="440" y="210" as="targetPoint" />
          </mxGeometry>
        </mxCell>
        <mxCell id="-O3e9xHYWyKH3gtKNk9v-313" value="查看章节列表" style="ellipse;whiteSpace=wrap;html=1;" vertex="1" parent="-O3e9xHYWyKH3gtKNk9v-305">
          <mxGeometry x="360" y="75" width="140" height="70" as="geometry" />
        </mxCell>
        <mxCell id="-O3e9xHYWyKH3gtKNk9v-314" value="" style="endArrow=none;html=1;rounded=0;" edge="1" parent="-O3e9xHYWyKH3gtKNk9v-305" source="-O3e9xHYWyKH3gtKNk9v-306" target="-O3e9xHYWyKH3gtKNk9v-313">
          <mxGeometry width="50" height="50" relative="1" as="geometry">
            <mxPoint x="240" y="180" as="sourcePoint" />
            <mxPoint x="460" y="80" as="targetPoint" />
          </mxGeometry>
        </mxCell>
      </root>
    </mxGraphModel>
  </diagram>
</mxfile>
